<?xml version="1.0" encoding="UTF-8" standalone="no"?>
<!DOCTYPE svg PUBLIC "-//W3C//DTD SVG 1.1//EN" "http://www.w3.org/Graphics/SVG/1.1/DTD/svg11.dtd">
<svg width="100%" height="100%" viewBox="0 0 857 857" version="1.1" xmlns="http://www.w3.org/2000/svg" xmlns:xlink="http://www.w3.org/1999/xlink" xml:space="preserve" xmlns:serif="http://www.serif.com/" style="fill-rule:evenodd;clip-rule:evenodd;stroke-linejoin:round;stroke-miterlimit:2;">
    <g transform="matrix(1,0,0,1,-108,-3470)">
        <rect id="Artboard3" x="108" y="3470" width="857" height="857" style="fill:none;"/>
        <g id="Artboard31" serif:id="Artboard3">
            <g transform="matrix(19.3804,0,0,19.3804,-62.3243,3441.85)">
                <path d="M18.461,20.363L18.461,26.762C18.461,33.597 24.026,39.125 30.898,39.125C37.771,39.125 43.336,33.597 43.336,26.762L43.336,20.363C43.336,13.528 37.771,8 30.898,8C24.026,8 18.461,13.528 18.461,20.363ZM40.709,20.363L40.709,26.762C40.709,32.141 36.314,36.498 30.898,36.498C25.483,36.498 21.088,32.141 21.088,26.762L21.088,20.363C21.088,14.984 25.483,10.627 30.898,10.627C36.327,10.627 40.709,14.984 40.709,20.363Z" style="fill:rgb(103,215,192);fill-rule:nonzero;"/>
            </g>
            <g transform="matrix(19.3804,0,0,19.3804,-62.3243,3441.85)">
                <path d="M25.881,14.81C23.279,17.4 23.279,21.583 25.881,24.172L29.305,27.571L30.239,28.493L32.094,26.638L27.736,22.305L27.662,22.218C26.168,20.649 26.205,18.197 27.736,16.665C29.305,15.096 31.87,15.096 33.438,16.665L36.016,19.23L37.858,17.362L35.281,14.798L35.181,14.711C32.592,12.233 28.446,12.258 25.881,14.81Z" style="fill:rgb(103,215,192);fill-rule:nonzero;"/>
            </g>
            <g transform="matrix(19.3804,0,0,19.3804,-62.3243,3441.85)">
                <path d="M31.558,18.62L29.703,20.487L34.06,24.82L34.135,24.907C35.629,26.476 35.591,28.928 34.06,30.46C32.491,32.028 29.927,32.028 28.358,30.46L25.781,27.895L23.926,29.763L26.503,32.327L26.603,32.414C29.205,34.904 33.338,34.867 35.915,32.327C38.517,29.738 38.517,25.554 35.915,22.965L31.558,18.62Z" style="fill:rgb(103,215,192);fill-rule:nonzero;"/>
            </g>
        </g>
    </g>
</svg>
